<?xml version="1.0" encoding="UTF-8" standalone="no"?>
<!-- Created with Inkscape (http://www.inkscape.org/) -->

<svg
   xmlns:dc="http://purl.org/dc/elements/1.1/"
   xmlns:cc="http://creativecommons.org/ns#"
   xmlns:rdf="http://www.w3.org/1999/02/22-rdf-syntax-ns#"
   xmlns:svg="http://www.w3.org/2000/svg"
   xmlns="http://www.w3.org/2000/svg"
   xmlns:sodipodi="http://sodipodi.sourceforge.net/DTD/sodipodi-0.dtd"
   xmlns:inkscape="http://www.inkscape.org/namespaces/inkscape"
   width="744.09448819"
   height="1052.3622047"
   id="svg3027"
   version="1.1"
   inkscape:version="0.48.1 r9760"
   sodipodi:docname="kwlopost.svg">
  <defs
     id="defs3029" />
  <sodipodi:namedview
     id="base"
     pagecolor="#ffffff"
     bordercolor="#666666"
     borderopacity="1.0"
     inkscape:pageopacity="0.0"
     inkscape:pageshadow="2"
     inkscape:zoom="0.35"
     inkscape:cx="233.26507"
     inkscape:cy="573.10997"
     inkscape:document-units="px"
     inkscape:current-layer="g3048"
     showgrid="false"
     inkscape:window-width="1280"
     inkscape:window-height="725"
     inkscape:window-x="0"
     inkscape:window-y="25"
     inkscape:window-maximized="1" />
  <metadata
     id="metadata3032">
    <rdf:RDF>
      <cc:Work
         rdf:about="">
        <dc:format>image/svg+xml</dc:format>
        <dc:type
           rdf:resource="http://purl.org/dc/dcmitype/StillImage" />
        <dc:title />
      </cc:Work>
    </rdf:RDF>
  </metadata>
  <g
     inkscape:label="Layer 1"
     inkscape:groupmode="layer"
     id="layer1">
    <g
       id="g3048"
       transform="matrix(20.652647,0,0,24.746593,-5228.2308,-11147.266)">
      <g
         id="g3079"
         transform="translate(-0.55337078,-0.4618237)">
        <path
           transform="translate(189.90923,211.6632)"
           sodipodi:type="arc"
           style="fill:#0058ff;fill-opacity:1;fill-rule:nonzero;stroke:none"
           id="path5675"
           sodipodi:cx="70.857613"
           sodipodi:cy="255.7984"
           sodipodi:rx="7.0292044"
           sodipodi:ry="6.9484091"
           d="m 77.886817,255.7984 c 0,3.8375 -3.147082,6.94841 -7.029204,6.94841 -3.882123,0 -7.029205,-3.11091 -7.029205,-6.94841 0,-3.8375 3.147082,-6.94841 7.029205,-6.94841 3.882122,0 7.029204,3.11091 7.029204,6.94841 z" />
        <path
           sodipodi:nodetypes="ccsssssscsscc"
           transform="matrix(0.04841994,0,0,0.0404096,253.15064,450.45659)"
           inkscape:connector-curvature="0"
           id="path3073"
           d="m 401.45592,636.44604 -223.52345,-47.44786 56.38059,-25.89516 c 24.73819,-11.36205 50.52656,-51.04475 57.37847,-75.85081 13.68152,-49.53146 6.09644,-26.52786 13.17556,-78.67578 3.03143,-22.3309 -21.20511,-87.59429 -29.1004,-96.31849 -2.49157,-2.75316 -57.65228,-50.76289 -56.23015,-50.81529 1.42212,-0.0524 138.35308,47.18131 247.04285,84.6238 l 204.45717,70.43335 c 56.27922,33.33917 62.72226,74.86308 59.31906,64.39826 -4.32234,-13.29116 24.56032,60.64842 4.36969,111.09048 -20.19193,50.44531 -81.22829,89.52568 -86.63338,89.29882 -3.28334,-0.13772 -131.55525,-23.45926 -246.63601,-44.84132 z"
           style="opacity:0.91000001;fill:#0000ff;fill-opacity:1;stroke:none" />
      </g>
      <path
         style="fill:none;stroke:#000000;stroke-width:1px;stroke-linecap:butt;stroke-linejoin:miter;stroke-opacity:1"
         d="m 248.57143,283.79075 c 0.95238,3.80953 6.66667,10.47619 2.85714,11.42858 -3.80952,0.95238 -5.63379,-14.20522 -2.85714,-11.42858 3.62656,3.62656 3.07558,9.88787 5.71428,14.28572 0.49,0.81666 2.18371,-0.67344 2.85715,0 0.67343,0.67343 -0.67344,2.18371 0,2.85714 0.67343,0.67344 2.1837,-0.67343 2.85714,0 0.67344,0.67344 -0.67344,2.18371 0,2.85714 7.61905,0 -0.95238,-0.95238 2.85714,2.85715 0.67344,0.67343 2.18371,-0.67344 2.85715,0 1.34687,1.34687 -1.34687,4.36741 0,5.71428 0.67343,0.67344 2.85714,0.95238 2.85714,0 0,-1.34687 -2.85714,-4.20401 -2.85714,-2.85714 0,14.43373 2.19578,2.19578 5.71428,5.71429 3.80953,3.80952 -4.7619,2.85714 2.85714,2.85714"
         id="path2986"
         inkscape:connector-curvature="0"
         transform="matrix(0.04841994,0,0,0.0404096,253.15064,450.45659)" />
    </g>
  </g>
</svg>
